<svg width="62" height="40" viewBox="0 0 62 40" fill="none" xmlns="http://www.w3.org/2000/svg">
<g opacity="0.3">
<path d="M49.6051 15.2137C51.5012 15.0064 52.8701 13.3013 52.6628 11.4052C52.4555 9.5092 50.7504 8.14022 48.8544 8.34753C46.9583 8.55485 45.5894 10.2599 45.7967 12.156C46.004 14.052 47.7091 15.421 49.6051 15.2137Z" stroke="#EB996E" stroke-width="0.376003" stroke-linecap="round" stroke-linejoin="round"/>
<path d="M51.8222 13.1819C52.5947 11.7514 52.0613 9.96552 50.6308 9.19301C49.2003 8.42051 47.4144 8.95393 46.6419 10.3844C45.8693 11.815 46.4028 13.6009 47.8333 14.3734C49.2638 15.1459 51.0497 14.6124 51.8222 13.1819Z" stroke="#EB996E" stroke-width="0.376003" stroke-linecap="round" stroke-linejoin="round"/>
<path d="M50.4835 12.3716C50.4835 11.3817 49.0795 11.3594 49.0795 10.9462C49.0795 10.7289 49.1937 10.663 49.4277 10.663C49.6292 10.663 49.7991 10.7503 49.9932 10.9248L50.4575 10.3909C50.2432 10.1508 49.9538 9.99037 49.6366 9.93586V9.37869H49.0247V9.95164C48.5 10.0649 48.1889 10.4392 48.1889 10.9898C48.1889 11.9417 49.5939 12.002 49.5939 12.4376C49.5939 12.6493 49.4843 12.7421 49.2123 12.7421C48.9838 12.7421 48.7554 12.6549 48.461 12.4376L48.0589 13.069C48.335 13.2971 48.6716 13.4397 49.0275 13.4795V14.0264H49.6376V13.4414C50.2031 13.3067 50.4835 12.8963 50.4835 12.3716Z" stroke="#EB996E" stroke-width="0.376003" stroke-linecap="round" stroke-linejoin="round"/>
</g>
<g opacity="0.3">
<path d="M51.2877 31.7036C52.1575 31.7036 52.8626 30.9985 52.8626 30.1287C52.8626 29.2589 52.1575 28.5537 51.2877 28.5537C50.4178 28.5537 49.7127 29.2589 49.7127 30.1287C49.7127 30.9985 50.4178 31.7036 51.2877 31.7036Z" stroke="#EB996E" stroke-width="0.376003" stroke-linecap="round" stroke-linejoin="round"/>
<path d="M52.2367 31.0783C52.7611 30.5539 52.7611 29.7037 52.2368 29.1793C51.7124 28.655 50.8622 28.655 50.3378 29.1793C49.8134 29.7037 49.8134 30.5539 50.3378 31.0783C50.8622 31.6027 51.7124 31.6027 52.2367 31.0783Z" stroke="#EB996E" stroke-width="0.376003" stroke-linecap="round" stroke-linejoin="round"/>
<path d="M51.8588 30.398C51.8588 29.9467 51.218 29.9337 51.218 29.748C51.218 29.6486 51.27 29.6189 51.3768 29.6189C51.4752 29.6238 51.568 29.6664 51.6359 29.7377L51.8467 29.4944C51.7493 29.3859 51.6187 29.3127 51.4753 29.2864V29.0329H51.1967V29.2939C51.0838 29.3102 50.9812 29.3683 50.9091 29.4567C50.8371 29.5451 50.8008 29.6573 50.8076 29.7712C50.8076 30.2058 51.4483 30.2355 51.4483 30.4314C51.4483 30.5289 51.3982 30.5707 51.2747 30.5707C51.1481 30.5638 51.0275 30.5148 50.932 30.4314L50.7463 30.7202C50.8723 30.824 51.026 30.8885 51.1883 30.9059V31.1557H51.4669V30.8855C51.5805 30.8661 51.6831 30.8058 51.7552 30.716C51.8274 30.6262 51.8643 30.5131 51.8588 30.398Z" stroke="#EB996E" stroke-width="0.376003" stroke-linecap="round" stroke-linejoin="round"/>
</g>
<g opacity="0.3">
<path d="M22.9945 5.10294C24.3426 4.88725 25.2606 3.61956 25.0449 2.27147C24.8292 0.923373 23.5615 0.00537691 22.2134 0.221065C20.8653 0.436753 19.9473 1.70445 20.163 3.05254C20.3787 4.40063 21.6464 5.31863 22.9945 5.10294Z" stroke="#EB996E" stroke-width="0.376003" stroke-linecap="round" stroke-linejoin="round"/>
<path d="M24.3832 3.79265C25.0066 2.81002 24.7153 1.50809 23.7327 0.884733C22.7501 0.261371 21.4481 0.552624 20.8248 1.53526C20.2014 2.5179 20.4927 3.81982 21.4753 4.44319C22.458 5.06655 23.7599 4.77529 24.3832 3.79265Z" stroke="#EB996E" stroke-width="0.376003" stroke-linecap="round" stroke-linejoin="round"/>
<path d="M23.4997 3.08637C23.4997 2.37783 22.4949 2.36205 22.4949 2.06489C22.4949 1.90981 22.5766 1.86245 22.7447 1.86245C22.8987 1.86943 23.0439 1.93604 23.1496 2.04817L23.4802 1.66651C23.3268 1.49432 23.1196 1.37912 22.8924 1.33964V0.944046H22.4559V1.35542C22.2819 1.38337 22.1243 1.47471 22.0135 1.61186C21.9028 1.74902 21.8467 1.92228 21.856 2.09832C21.856 2.77993 22.8608 2.82264 22.8608 3.13466C22.8608 3.28602 22.7837 3.35288 22.5887 3.35288C22.4253 3.35288 22.2609 3.29067 22.051 3.13466L21.7632 3.58411C21.9602 3.74806 22.2011 3.85044 22.4559 3.87848V4.27129H22.8924V3.85248C23.0692 3.81988 23.2281 3.72428 23.3398 3.5834C23.4515 3.44253 23.5083 3.26593 23.4997 3.08637Z" stroke="#EB996E" stroke-width="0.376003" stroke-linecap="round" stroke-linejoin="round"/>
</g>
<g opacity="0.3">
<path d="M3.27496 32.1182C4.13354 31.9788 4.71657 31.1698 4.5772 30.3112C4.43784 29.4527 3.62885 28.8696 2.77027 29.009C1.91169 29.1484 1.32866 29.9574 1.46803 30.8159C1.60739 31.6745 2.41638 32.2575 3.27496 32.1182Z" stroke="#EB996E" stroke-width="0.376003" stroke-linecap="round" stroke-linejoin="round"/>
<path d="M4.36363 30.5642C4.36363 30.2986 4.28488 30.039 4.13734 29.8182C3.98979 29.5974 3.78007 29.4253 3.53471 29.3236C3.28935 29.222 3.01936 29.1954 2.75889 29.2472C2.49841 29.299 2.25915 29.4269 2.07136 29.6147C1.88357 29.8025 1.75568 30.0418 1.70387 30.3022C1.65206 30.5627 1.67865 30.8327 1.78028 31.0781C1.88191 31.3234 2.05402 31.5331 2.27484 31.6807C2.49566 31.8282 2.75527 31.907 3.02085 31.907C3.37698 31.907 3.71852 31.7655 3.97034 31.5137C4.22216 31.2619 4.36363 30.9203 4.36363 30.5642V30.5642Z" stroke="#EB996E" stroke-width="0.376003" stroke-linecap="round" stroke-linejoin="round"/>
<path d="M3.59198 30.8344C3.59198 30.3822 2.95217 30.3701 2.95217 30.1844C2.95217 30.085 3.00417 30.0553 3.11096 30.0553C3.20913 30.0601 3.30163 30.1027 3.36911 30.1742L3.57991 29.9309C3.48282 29.8221 3.352 29.7492 3.20846 29.7238V29.4693H2.92988V29.7312C2.81878 29.7487 2.71814 29.8069 2.64746 29.8944C2.57678 29.9819 2.54108 30.0925 2.54729 30.2048C2.54729 30.6385 3.18803 30.6691 3.18803 30.8651C3.18803 30.9579 3.13882 31.0034 3.01438 31.0034C2.88794 30.9968 2.76734 30.9481 2.67172 30.8651L2.486 31.1529C2.61232 31.2562 2.76584 31.3207 2.92802 31.3386V31.5875H3.20661V31.3219C3.31918 31.3015 3.42045 31.2407 3.4914 31.151C3.56235 31.0612 3.59811 30.9487 3.59198 30.8344V30.8344Z" stroke="#EB996E" stroke-width="0.376003" stroke-linecap="round" stroke-linejoin="round"/>
</g>
<g opacity="0.3">
<path d="M42.5083 39.1749C43.3685 39.0456 43.9609 38.2435 43.8316 37.3833C43.7023 36.5232 42.9002 35.9307 42.04 36.06C41.1799 36.1893 40.5874 36.9915 40.7168 37.8516C40.8461 38.7118 41.6482 39.3042 42.5083 39.1749Z" stroke="#EB996E" stroke-width="0.376003" stroke-linecap="round" stroke-linejoin="round"/>
<path d="M43.6154 37.6198C43.6151 37.3543 43.536 37.0949 43.3882 36.8743C43.2405 36.6538 43.0306 36.4819 42.7852 36.3806C42.5398 36.2792 42.2699 36.2529 42.0096 36.3049C41.7492 36.357 41.5101 36.485 41.3225 36.6729C41.1349 36.8607 41.0072 37.1 40.9555 37.3604C40.9039 37.6208 40.9306 37.8907 41.0323 38.136C41.1339 38.3812 41.3061 38.5908 41.5268 38.7383C41.7476 38.8858 42.0072 38.9645 42.2727 38.9645C42.4492 38.9646 42.624 38.9299 42.7871 38.8623C42.9502 38.7948 43.0983 38.6957 43.2231 38.5708C43.3478 38.4459 43.4467 38.2976 43.514 38.1344C43.5813 37.9712 43.6158 37.7964 43.6154 37.6198V37.6198Z" stroke="#EB996E" stroke-width="0.376003" stroke-linecap="round" stroke-linejoin="round"/>
<path d="M42.8438 37.8892C42.8438 37.4379 42.2039 37.4249 42.2039 37.2391C42.2039 37.1398 42.2559 37.11 42.3627 37.11C42.4609 37.1149 42.5534 37.1575 42.6209 37.2289L42.8317 36.9856C42.7347 36.8765 42.6039 36.8033 42.4602 36.7776V36.5241H42.1816V36.786C42.0707 36.8035 41.9702 36.8615 41.8996 36.9488C41.8289 37.0361 41.7931 37.1465 41.7991 37.2586C41.7991 37.6932 42.4398 37.7229 42.4398 37.9198C42.4398 38.0127 42.3906 38.0582 42.2662 38.0582C42.1397 38.0515 42.0191 38.0028 41.9235 37.9198L41.7378 38.2077C41.8641 38.311 42.0176 38.3755 42.1798 38.3934V38.6423H42.4584V38.3758C42.5707 38.3552 42.6717 38.2945 42.7426 38.205C42.8135 38.1154 42.8495 38.0032 42.8438 37.8892Z" stroke="#EB996E" stroke-width="0.376003" stroke-linecap="round" stroke-linejoin="round"/>
</g>
<g opacity="0.3">
<path d="M11.124 14.2669C11.9938 14.2669 12.699 13.5618 12.699 12.692C12.699 11.8222 11.9938 11.1171 11.124 11.1171C10.2542 11.1171 9.54908 11.8222 9.54908 12.692C9.54908 13.5618 10.2542 14.2669 11.124 14.2669Z" stroke="#EB996E" stroke-width="0.376003" stroke-linecap="round" stroke-linejoin="round"/>
<path d="M12.3866 13.1477C12.6391 12.4504 12.2784 11.6805 11.5811 11.4281C10.8838 11.1757 10.1139 11.5363 9.86144 12.2336C9.60902 12.931 9.96967 13.7009 10.667 13.9533C11.3643 14.2057 12.1342 13.8451 12.3866 13.1477Z" stroke="#EB996E" stroke-width="0.376003" stroke-linecap="round" stroke-linejoin="round"/>
<path d="M11.696 12.9632C11.696 12.5109 11.0553 12.4988 11.0553 12.3131C11.0553 12.2138 11.1073 12.184 11.2141 12.184C11.3125 12.1888 11.4051 12.2318 11.4722 12.3038L11.683 12.0605C11.5861 11.9515 11.4553 11.8782 11.3116 11.8525V11.5981H11.033V11.86C10.922 11.8777 10.8215 11.9359 10.7508 12.0233C10.6802 12.1108 10.6444 12.2213 10.6504 12.3335C10.6504 12.7681 11.2912 12.7979 11.2912 12.9938C11.2912 13.0867 11.242 13.1331 11.1175 13.1331C10.991 13.1259 10.8705 13.0769 10.7749 12.9938L10.5891 13.2817C10.7155 13.385 10.869 13.4495 11.0312 13.4674V13.7172H11.3097V13.4497C11.4222 13.4294 11.5235 13.3688 11.5946 13.2792C11.6656 13.1897 11.7017 13.0773 11.696 12.9632V12.9632Z" stroke="#EB996E" stroke-width="0.376003" stroke-linecap="round" stroke-linejoin="round"/>
</g>
<g opacity="0.3">
<path d="M10.1482 35.2084C12.0442 35.0004 13.4125 33.2948 13.2046 31.3989C12.9966 29.5029 11.291 28.1345 9.39505 28.3425C7.49909 28.5505 6.13071 30.256 6.33868 32.152C6.54666 34.048 8.25224 35.4163 10.1482 35.2084Z" stroke="#EB996E" stroke-width="0.376003" stroke-linecap="round" stroke-linejoin="round"/>
<path d="M12.4133 33.0754C13.1327 31.6174 12.5338 29.8524 11.0759 29.1331C9.61787 28.4137 7.85282 29.0126 7.1335 30.4705C6.41419 31.9285 7.013 33.6936 8.47099 34.4129C9.92897 35.1322 11.694 34.5334 12.4133 33.0754Z" stroke="#EB996E" stroke-width="0.376003" stroke-linecap="round" stroke-linejoin="round"/>
<path d="M11.0265 32.3657C11.0265 31.3749 9.6224 31.3536 9.6224 30.9394C9.6224 30.7221 9.73662 30.6562 9.97063 30.6562C10.1721 30.6562 10.3421 30.7435 10.5371 30.918L11.0014 30.3841C10.7864 30.1443 10.4969 29.984 10.1796 29.9291V29.3719H9.56761V29.9458C9.04387 30.0591 8.73186 30.4333 8.73186 30.983C8.73186 31.9358 10.1359 31.9952 10.1359 32.4308C10.1359 32.6434 10.0273 32.7353 9.75519 32.7353C9.52675 32.7353 9.29739 32.648 9.00394 32.4308L8.60092 33.0622C8.87708 33.2902 9.21362 33.4328 9.56947 33.4727V34.0196H10.1796V33.4346C10.746 33.2999 11.0265 32.8895 11.0265 32.3657Z" stroke="#EB996E" stroke-width="0.376003" stroke-linecap="round" stroke-linejoin="round"/>
</g>
<path d="M7.79396 15.1631C7.81625 15.606 7.44294 16.5272 7.44294 16.5281C7.44294 16.5291 6.90992 16.0982 6.8802 16.0638C6.53104 15.698 6.07045 14.787 6.33974 14.2892C6.3868 14.2078 6.45047 14.1371 6.52663 14.0819C6.60279 14.0266 6.68972 13.988 6.78177 13.9686C6.87383 13.9491 6.96894 13.9493 7.06093 13.969C7.15293 13.9887 7.23974 14.0276 7.31572 14.0831C7.64538 14.3106 7.77446 14.786 7.79396 15.1631Z" fill="#BC9434"/>
<path d="M16.8313 23.9627L16.8889 23.997L16.8963 24.3973L16.6567 24.2496C16.4255 24.1057 16.1813 23.9478 15.9315 23.7853C15.7384 23.9956 15.5331 24.1944 15.3167 24.3805C15.508 24.7631 15.5888 25.5877 15.5953 25.6936C15.8637 25.6871 16.1246 25.6778 16.3707 25.6657C16.5397 25.6574 16.7022 25.6481 16.8591 25.6379L16.7273 25.987C16.6149 25.987 16.5016 25.9954 16.3837 25.9982C16.1116 26.0056 15.8209 26.0093 15.5219 26.0093C15.5052 26.1161 15.3622 26.9937 15.1328 27.3419C14.9248 27.6567 14.5757 28.0003 14.1727 28.0254C14.0796 28.0342 13.9858 28.0234 13.8972 27.9938C13.8086 27.9642 13.7272 27.9164 13.6582 27.8534C13.5892 27.7904 13.5341 27.7137 13.4965 27.6282C13.459 27.5426 13.4397 27.4502 13.44 27.3568C13.4613 26.7903 14.3212 26.2424 14.8078 26.1031C14.8366 26.0957 15.1579 26.0428 15.3604 26.0103C15.2387 26.0103 15.1198 26.0103 14.9945 26.0103C14.7456 26.0103 14.4977 25.9973 14.2302 25.988L13.8402 25.9601C13.7102 25.9536 13.5728 25.9304 13.4381 25.9155C13.1252 25.8756 12.8113 25.8227 12.4956 25.7567C12.4956 25.974 12.4714 26.7467 12.3098 27.0912C12.1483 27.4357 11.8557 27.8276 11.4648 27.913C11.3735 27.9361 11.2783 27.9397 11.1856 27.9235C11.0928 27.9074 11.0044 27.8719 10.9263 27.8193C10.8481 27.7667 10.7819 27.6983 10.732 27.6184C10.6821 27.5386 10.6495 27.4491 10.6365 27.3558C10.5715 26.7931 11.3385 26.1189 11.7991 25.91C11.827 25.897 12.1705 25.7846 12.3665 25.7243C12.1808 25.6843 11.9876 25.6462 11.7972 25.5998C11.2475 25.4661 10.6959 25.3138 10.1443 25.1643L9.64006 25.0352C9.64006 25.1132 9.63542 26.0326 9.45434 26.4179C9.29647 26.7606 8.99932 27.1543 8.6093 27.2398C8.51798 27.263 8.42279 27.2667 8.32994 27.2506C8.2371 27.2345 8.14869 27.199 8.07051 27.1464C7.99232 27.0939 7.92612 27.0254 7.87623 26.9454C7.82633 26.8655 7.79387 26.7759 7.78097 26.6826C7.71597 26.1198 8.483 25.4457 8.94267 25.2367C8.97796 25.2209 9.47756 25.0594 9.60663 25.025C9.23519 24.9266 8.86374 24.8328 8.49229 24.7557C7.99278 24.6486 7.48687 24.5738 6.97771 24.5319C6.97771 24.5681 6.97771 25.5274 6.79199 25.9248C6.6332 26.2675 6.33697 26.6603 5.94695 26.7457C5.85557 26.7691 5.76028 26.7729 5.66732 26.7569C5.57437 26.7409 5.48584 26.7054 5.40755 26.6528C5.32926 26.6002 5.26296 26.5317 5.21301 26.4517C5.16306 26.3717 5.13058 26.282 5.11769 26.1886C5.05362 25.6267 5.81973 24.9516 6.28032 24.7427C6.31654 24.7269 6.85421 24.557 6.95357 24.5282C6.92385 24.5282 6.89414 24.5208 6.86071 24.5189C6.3491 24.4912 5.83604 24.5089 5.32756 24.5718C5.04897 24.6034 4.77967 24.6489 4.52059 24.6991C4.53916 24.8783 4.61345 25.6955 4.48902 26.0697C4.36922 26.4281 4.11757 26.8507 3.73869 26.9788C3.65148 27.0101 3.55873 27.0229 3.46631 27.0165C3.37389 27.0101 3.28381 26.9845 3.20176 26.9415C3.11972 26.8985 3.04749 26.8389 2.98966 26.7665C2.93183 26.6941 2.88965 26.6105 2.86579 26.521C2.7395 25.9638 3.42296 25.2144 3.8622 24.9563C3.88541 24.9424 4.14078 24.8263 4.32651 24.7436C4.2095 24.7687 4.08971 24.7919 3.97828 24.817C3.56133 24.9099 3.18431 25.025 2.85186 25.1281C2.66614 25.1884 2.49434 25.246 2.33648 25.3017C2.26312 25.4875 1.95667 26.2303 1.67902 26.4969C1.40136 26.7634 0.989053 27.0187 0.59439 26.9612C0.199727 26.9036 -0.0816448 26.5396 0.0214319 26.1449C0.163511 25.597 1.12184 25.2442 1.62701 25.2163C1.67066 25.2163 2.35691 25.2534 2.35319 25.2627V25.2739C2.50456 25.2172 2.66614 25.1578 2.84536 25.0974C3.17595 24.9869 3.55111 24.8653 3.96806 24.7603C4.41597 24.6408 4.87055 24.5478 5.32942 24.4818C5.84275 24.4068 6.36171 24.3776 6.88021 24.3945H6.89878C6.74184 24.3388 6.31097 24.1679 6.27939 24.1512C5.83366 23.9125 5.11212 23.191 5.21241 22.6338C5.23166 22.5417 5.27009 22.4548 5.32519 22.3786C5.3803 22.3023 5.45085 22.2386 5.53224 22.1914C5.61363 22.1443 5.70403 22.1149 5.79757 22.105C5.8911 22.0951 5.98567 22.1051 6.0751 22.1342C6.45954 22.2447 6.72513 22.6552 6.86535 23.008C7.01857 23.4055 6.96378 24.3267 6.95821 24.401C7.48541 24.4314 8.01 24.4969 8.52851 24.5969C8.83031 24.6536 9.13397 24.7204 9.4367 24.791C9.30298 24.7381 9.18411 24.6898 9.16833 24.6814C8.72166 24.4428 8.00105 23.7212 8.10134 23.164C8.12061 23.072 8.15905 22.985 8.21414 22.9087C8.26923 22.8325 8.33975 22.7687 8.42112 22.7215C8.50248 22.6743 8.59287 22.6447 8.6864 22.6347C8.77994 22.6247 8.87453 22.6346 8.96403 22.6635C9.34848 22.774 9.61871 23.1854 9.75428 23.5383C9.88986 23.8912 9.86107 24.6823 9.84715 24.8904C9.96322 24.9182 10.0793 24.9451 10.1944 24.9739C10.7516 25.1114 11.3088 25.2525 11.8511 25.3714C12.0433 25.4141 12.2356 25.4494 12.4268 25.4847C12.308 25.4373 12.2086 25.3974 12.1947 25.3918C11.748 25.1541 11.0265 24.4316 11.1277 23.8744C11.147 23.7824 11.1854 23.6954 11.2405 23.6192C11.2956 23.543 11.3661 23.4792 11.4475 23.4321C11.5289 23.3849 11.6193 23.3555 11.7129 23.3456C11.8064 23.3358 11.901 23.3457 11.9904 23.3748C12.3739 23.4853 12.6451 23.8967 12.7807 24.2487C12.9162 24.6006 12.8902 25.3166 12.8735 25.5636C13.0704 25.5942 13.2682 25.6249 13.4604 25.6453C13.5923 25.6565 13.7176 25.6769 13.8504 25.6806L14.2414 25.7001C14.4902 25.7001 14.7465 25.7075 14.9898 25.7047C15.1579 25.7047 15.3195 25.7001 15.4811 25.6964C15.2888 25.6565 14.9137 25.5701 14.883 25.559C14.4694 25.3957 14.1043 25.1294 13.8226 24.7854C13.7759 24.7692 13.7308 24.7487 13.6879 24.7241C13.6047 24.6802 13.5317 24.6192 13.4737 24.5451C13.4156 24.471 13.3739 24.3855 13.3511 24.2942C13.3283 24.2029 13.325 24.1079 13.3415 24.0152C13.3579 23.9226 13.3937 23.8344 13.4465 23.7565C13.7761 23.2968 14.7967 23.3117 15.2777 23.4668C15.3065 23.4761 15.6037 23.6089 15.7894 23.6961C15.6882 23.6284 15.5888 23.5634 15.4848 23.4919C15.2786 23.3526 15.0771 23.2077 14.8598 23.0526L14.5562 22.8065C14.4512 22.7295 14.35 22.6347 14.2451 22.5474C14.0074 22.3422 13.7752 22.1212 13.5468 21.8974C13.4251 22.0776 12.9812 22.7109 12.6581 22.9105C12.3349 23.1102 11.8734 23.2736 11.501 23.1297C11.1286 22.9858 10.9299 22.5725 11.1147 22.2104C11.371 21.7052 12.3832 21.5659 12.8791 21.6448C12.9107 21.6504 13.2617 21.7479 13.4539 21.8046C13.3183 21.6671 13.1818 21.5306 13.0481 21.3867C12.6636 20.9725 12.2866 20.5407 11.9096 20.1117C11.7935 19.9807 11.6765 19.8507 11.5604 19.7207C11.5177 19.7857 11.0033 20.55 10.6448 20.7738C10.3245 20.9725 9.86014 21.1359 9.48777 20.992C9.39893 20.9611 9.31759 20.9119 9.24902 20.8476C9.18044 20.7832 9.12618 20.7051 9.08975 20.6184C9.05331 20.5317 9.03553 20.4383 9.03755 20.3443C9.03957 20.2503 9.06134 20.1577 9.10146 20.0727C9.35869 19.5684 10.37 19.4282 10.8658 19.5081C10.9039 19.5146 11.41 19.6548 11.5363 19.6938C11.28 19.4069 11.0218 19.1236 10.7563 18.858C10.3988 18.4934 10.0182 18.1522 9.61685 17.8366C9.59735 17.8672 9.06711 18.6667 8.69752 18.8961C8.37621 19.0948 7.9119 19.2592 7.53953 19.1153C7.45065 19.0843 7.36929 19.035 7.30074 18.9705C7.23218 18.9061 7.17796 18.8279 7.14161 18.7411C7.10526 18.6543 7.08759 18.5608 7.08975 18.4667C7.09191 18.3726 7.11385 18.2801 7.15415 18.195C7.41045 17.6908 8.42172 17.5515 8.91853 17.6304C8.95846 17.6369 9.50263 17.7892 9.5992 17.8236C9.57599 17.805 9.5537 17.7836 9.52956 17.766C9.11811 17.461 8.68059 17.1928 8.22206 16.9646C7.97041 16.8364 7.72247 16.7269 7.47917 16.6256C7.39559 16.7854 7.00557 17.5078 6.69634 17.7511C6.38711 17.9944 5.95345 18.1978 5.569 18.0956C5.47734 18.0746 5.39113 18.0345 5.31598 17.978C5.24082 17.9214 5.1784 17.8497 5.13278 17.7675C5.08715 17.6852 5.05933 17.5943 5.05113 17.5006C5.04293 17.4069 5.05454 17.3126 5.08519 17.2237C5.28391 16.6944 6.27382 16.4446 6.77899 16.4687C6.80685 16.4687 7.08451 16.5142 7.28602 16.5495C7.17551 16.5059 7.06222 16.4566 6.95543 16.4186C6.55426 16.2681 6.17817 16.1548 5.84108 16.0564C5.65536 16.0025 5.47707 15.958 5.31456 15.9171C5.15112 16.0304 4.48716 16.4799 4.10735 16.5504C3.72755 16.621 3.24374 16.6061 2.94844 16.3378C2.65314 16.0694 2.61692 15.6134 2.92058 15.3414C3.34124 14.9625 4.33487 15.1974 4.77224 15.4509C4.80939 15.4732 5.36099 15.8846 5.35263 15.8911L5.34242 15.8976C5.49935 15.9338 5.66743 15.9738 5.85037 16.0211C6.18746 16.114 6.56634 16.2171 6.97214 16.3601C7.41099 16.5087 7.84075 16.683 8.25921 16.8819C8.72858 17.103 9.17759 17.365 9.60106 17.6648L9.61499 17.6768C9.51563 17.544 9.25097 17.1633 9.23333 17.1317C8.99282 16.6869 8.78945 15.6868 9.18133 15.2745C9.24818 15.2084 9.32818 15.1572 9.41614 15.1241C9.5041 15.091 9.59804 15.0768 9.69186 15.0824C9.78567 15.088 9.87725 15.1133 9.96064 15.1567C10.044 15.2 10.1174 15.2604 10.1759 15.3339C10.4359 15.6376 10.434 16.1298 10.3532 16.4984C10.2604 16.9144 9.70321 17.6527 9.66328 17.7112C10.0905 18.0282 10.496 18.3735 10.877 18.7448C11.098 18.9593 11.3144 19.1812 11.527 19.4069C11.4453 19.2899 11.3719 19.184 11.3636 19.1682C11.1231 18.7234 10.9197 17.7223 11.3116 17.311C11.3784 17.2449 11.4584 17.1937 11.5464 17.1606C11.6344 17.1275 11.7283 17.1133 11.8221 17.1189C11.9159 17.1245 12.0075 17.1498 12.0909 17.1931C12.1743 17.2364 12.2476 17.2969 12.3061 17.3704C12.5661 17.6741 12.5643 18.1662 12.4835 18.5349C12.4027 18.9035 11.9412 19.548 11.8167 19.7161C11.8985 19.8034 11.9802 19.8897 12.061 19.977C12.4482 20.3986 12.8327 20.8202 13.2227 21.2223C13.3601 21.3644 13.5013 21.5009 13.6406 21.6346C13.5681 21.5297 13.5078 21.4415 13.4994 21.4266C13.2589 20.9818 13.0555 19.9817 13.4474 19.5694C13.726 19.275 14.1903 19.3316 14.4419 19.6288C14.6936 19.926 14.7001 20.4256 14.6193 20.7942C14.5385 21.1629 14.1216 21.7442 13.9749 21.9438C14.1225 22.0785 14.2702 22.2131 14.4197 22.3366C14.5227 22.4184 14.6175 22.5047 14.7261 22.5809L15.0409 22.8121C15.2471 22.9523 15.4579 23.0981 15.6622 23.2291C15.8033 23.3219 15.9407 23.4073 16.0772 23.4937C15.9389 23.3544 15.6733 23.0749 15.6538 23.0489C15.3483 22.6459 14.9963 21.6885 15.3214 21.2242C15.3774 21.1487 15.4488 21.0859 15.5307 21.0398C15.6127 20.9937 15.7034 20.9653 15.797 20.9566C15.8906 20.9478 15.985 20.9588 16.0741 20.9889C16.1632 21.0191 16.2449 21.0676 16.314 21.1313C16.6158 21.3922 16.6855 21.8788 16.6651 22.2559C16.6381 22.671 16.223 23.4547 16.1701 23.5559C16.3967 23.7008 16.6186 23.8373 16.8313 23.9627Z" fill="#BC9434"/>
<path d="M4.44166 24.6405C4.44166 24.6507 3.76006 24.5755 3.71734 24.5662C3.22424 24.4539 2.33741 23.9478 2.28727 23.3841C2.28169 23.2902 2.29593 23.1962 2.32908 23.1081C2.36223 23.0201 2.41353 22.94 2.47966 22.8731C2.54579 22.8062 2.62525 22.7539 2.7129 22.7197C2.80054 22.6855 2.8944 22.6702 2.98837 22.6746C3.38768 22.6793 3.75727 23.0043 3.98107 23.3089C4.24387 23.6655 4.44166 24.6396 4.44166 24.6405Z" fill="#BC9434"/>
<path d="M53.7717 15.1631C53.7494 15.606 54.1218 16.5272 54.1218 16.5281C54.1218 16.5291 54.6548 16.0982 54.6855 16.0638C55.0347 15.698 55.4952 14.787 55.226 14.2892C55.1789 14.2078 55.1152 14.1371 55.0391 14.0819C54.9629 14.0266 54.876 13.988 54.7839 13.9686C54.6919 13.9491 54.5968 13.9493 54.5048 13.969C54.4128 13.9887 54.326 14.0276 54.25 14.0831C53.9194 14.3106 53.7903 14.786 53.7717 15.1631Z" fill="#BC9434"/>
<path d="M44.7344 23.9626L44.6759 23.997L44.6694 24.3972L44.909 24.2496C45.1402 24.1057 45.3845 23.9478 45.6333 23.7853C45.8264 23.9956 46.0317 24.1944 46.2481 24.3805C46.0568 24.7631 45.9769 25.5877 45.9695 25.6936C45.7011 25.6871 45.4411 25.6778 45.195 25.6657C45.0251 25.6574 44.8626 25.6481 44.7066 25.6379L44.8394 25.9898C44.9508 25.9898 45.0641 25.9982 45.182 26.001C45.4541 26.0084 45.7457 26.0121 46.0447 26.0121C46.0614 26.1189 46.2044 26.9964 46.4338 27.3447C46.6418 27.6595 46.991 28.0031 47.3931 28.0281C47.4867 28.0374 47.5812 28.0268 47.6705 27.9971C47.7597 27.9674 47.8417 27.9192 47.9111 27.8557C47.9805 27.7922 48.0357 27.7148 48.0732 27.6285C48.1107 27.5422 48.1295 27.449 48.1285 27.3549C48.1072 26.7884 47.2473 26.2406 46.7607 26.1013C46.7319 26.0938 46.4106 26.0409 46.2035 26.0084C46.3261 26.0084 46.444 26.0084 46.575 26.0084C46.8238 26.0084 47.0718 25.9954 47.3383 25.9861L47.7283 25.9583C47.8592 25.9517 47.9958 25.9285 48.1313 25.9137C48.4433 25.8737 48.7581 25.8208 49.0739 25.7549C49.0739 25.9722 49.0971 26.7448 49.2596 27.0893C49.4221 27.4338 49.7146 27.8257 50.1046 27.9111C50.196 27.9342 50.2912 27.9378 50.3841 27.9217C50.4769 27.9055 50.5653 27.87 50.6435 27.8175C50.7217 27.7649 50.788 27.6965 50.8381 27.6166C50.8881 27.5368 50.9207 27.4473 50.9339 27.354C50.998 26.7912 50.2319 26.117 49.7713 25.9081C49.7425 25.8951 49.3998 25.7827 49.2039 25.7224C49.3896 25.6824 49.5818 25.6444 49.7731 25.5979C50.3219 25.4642 50.8745 25.3119 51.4261 25.1624L51.922 25.0352C51.922 25.1132 51.9266 26.0325 52.1077 26.4179C52.2655 26.7606 52.5618 27.1543 52.9518 27.2397C53.3418 27.3252 53.7346 27.0902 53.781 26.6826C53.8451 26.1198 53.079 25.4457 52.6184 25.2367C52.5841 25.2209 52.0845 25.0593 51.9554 25.025C52.3268 24.9266 52.6983 24.8328 53.0697 24.7557C53.5689 24.6485 54.0745 24.5738 54.5834 24.5319C54.5834 24.5681 54.5834 25.5274 54.7691 25.9248C54.927 26.2675 55.2241 26.6603 55.6141 26.7457C55.7055 26.769 55.8006 26.7727 55.8935 26.7566C55.9863 26.7405 56.0747 26.705 56.1529 26.6524C56.2311 26.5998 56.2973 26.5313 56.3472 26.4514C56.3971 26.3715 56.4296 26.2819 56.4425 26.1885C56.5075 25.6267 55.7414 24.9516 55.2808 24.7427C55.2445 24.7269 54.7069 24.557 54.6066 24.5282C54.6363 24.5282 54.6669 24.5207 54.6994 24.5189C55.2107 24.4912 55.7235 24.5089 56.2317 24.5718C56.5103 24.6034 56.7805 24.6489 57.0386 24.699C57.021 24.8783 56.9458 25.6955 57.0711 26.0697C57.1909 26.4281 57.4426 26.8507 57.8205 26.9788C57.9082 27.0111 58.0016 27.0248 58.0949 27.0189C58.1881 27.013 58.2791 26.9877 58.362 26.9446C58.4449 26.9015 58.5178 26.8416 58.5762 26.7686C58.6345 26.6957 58.677 26.6113 58.7009 26.521C58.8272 25.9638 58.1437 25.2144 57.7045 24.9563C57.6812 24.9423 57.4259 24.8263 57.2402 24.7436C57.3562 24.7687 57.4769 24.7919 57.5884 24.817C58.0053 24.9098 58.3814 25.025 58.7139 25.1281C58.8996 25.1884 59.0723 25.246 59.2302 25.3017C59.3035 25.4874 59.61 26.2303 59.8876 26.4968C60.1653 26.7634 60.5767 27.0187 60.9713 26.9612C61.0647 26.9499 61.1547 26.9191 61.2354 26.8708C61.3162 26.8225 61.3859 26.7577 61.44 26.6808C61.4941 26.6038 61.5314 26.5163 61.5495 26.424C61.5677 26.3317 61.5662 26.2366 61.5452 26.1449C61.4022 25.597 60.4439 25.2441 59.9396 25.2163C59.896 25.2163 59.2098 25.2534 59.2135 25.2627V25.2739C59.063 25.2172 58.9005 25.1578 58.7222 25.0974C58.3907 24.9869 58.0165 24.8653 57.5995 24.7603C57.1516 24.6409 56.697 24.5478 56.2382 24.4817C55.7248 24.4068 55.2059 24.3776 54.6874 24.3945H54.6688C54.8248 24.3387 55.2566 24.1679 55.2882 24.1512C55.7339 23.9125 56.4555 23.191 56.3542 22.6338C56.335 22.5417 56.2966 22.4548 56.2415 22.3785C56.1864 22.3023 56.1158 22.2386 56.0344 22.1914C55.953 22.1443 55.8626 22.1148 55.7691 22.105C55.6756 22.0951 55.581 22.1051 55.4916 22.1342C55.108 22.2447 54.8369 22.6552 54.7013 23.008C54.5481 23.4055 54.6084 24.3267 54.6084 24.401C54.0806 24.4309 53.5554 24.4961 53.0363 24.596C52.7336 24.6526 52.4308 24.7195 52.1281 24.79C52.2618 24.7371 52.3807 24.6888 52.3965 24.6805C52.8422 24.4418 53.5637 23.7203 53.4635 23.1631C53.4442 23.071 53.4058 22.984 53.3507 22.9078C53.2956 22.8316 53.225 22.7678 53.1437 22.7205C53.0623 22.6733 52.9719 22.6438 52.8784 22.6338C52.7849 22.6238 52.6903 22.6336 52.6008 22.6626C52.2163 22.7731 51.9452 23.1845 51.8096 23.5373C51.674 23.8902 51.7037 24.6814 51.7167 24.8894L51.3685 24.973C50.8113 25.1104 50.2597 25.2516 49.7128 25.3704C49.5196 25.4131 49.3283 25.4484 49.137 25.4837C49.255 25.4364 49.3543 25.3964 49.3692 25.3909C49.8149 25.1531 50.5365 24.4307 50.4362 23.8735C50.4169 23.7814 50.3785 23.6945 50.3234 23.6182C50.2683 23.542 50.1977 23.4783 50.1163 23.4311C50.0349 23.384 49.9445 23.3545 49.851 23.3447C49.7575 23.3348 49.6629 23.3448 49.5735 23.3739C49.189 23.4844 48.9188 23.8958 48.7832 24.2477C48.6476 24.5997 48.6718 25.3138 48.6857 25.5599C48.4889 25.5905 48.2911 25.6212 48.0988 25.6416C47.967 25.6527 47.8407 25.6732 47.7079 25.6769L47.3179 25.6964C47.069 25.6964 46.8118 25.7038 46.5694 25.701C46.4004 25.701 46.2397 25.6964 46.0782 25.6927C46.2704 25.6527 46.6455 25.5664 46.6753 25.5552C47.0891 25.3923 47.4542 25.126 47.7357 24.7817C47.7827 24.7655 47.8281 24.745 47.8713 24.7204C47.9544 24.6763 48.0273 24.6153 48.0853 24.5412C48.1432 24.4671 48.1849 24.3817 48.2077 24.2904C48.2305 24.1991 48.2338 24.1041 48.2174 24.0115C48.2011 23.9189 48.1654 23.8307 48.1128 23.7528C47.7831 23.2931 46.7616 23.308 46.2806 23.4631C46.2527 23.4723 45.9556 23.6051 45.7689 23.6924C45.8711 23.6246 45.9704 23.5596 46.0735 23.4881C46.2797 23.3488 46.4812 23.204 46.6985 23.0489L47.0086 22.8102C47.1136 22.7332 47.2148 22.6384 47.3197 22.5511C47.5584 22.3459 47.7896 22.1249 48.018 21.9011C48.1406 22.0813 48.5845 22.7146 48.9067 22.9142C49.229 23.1139 49.6933 23.2708 50.0647 23.1306C50.4362 22.9904 50.6349 22.5734 50.4501 22.2113C50.1938 21.7061 49.1825 21.5668 48.6857 21.6457C48.6551 21.6513 48.3031 21.7488 48.1109 21.8055C48.2474 21.668 48.3839 21.5315 48.5167 21.3876C48.9021 20.9734 49.2782 20.5416 49.6561 20.1126C49.7713 19.9817 49.8883 19.8517 50.0044 19.7216C50.048 19.7867 50.5615 20.5509 50.92 20.7747C51.2413 20.9734 51.7056 21.1369 52.078 20.9929C52.1668 20.9621 52.2481 20.9129 52.3167 20.8485C52.3853 20.7841 52.4395 20.706 52.4758 20.6193C52.5122 20.5325 52.5299 20.4391 52.5277 20.3451C52.5256 20.2511 52.5036 20.1586 52.4633 20.0736C52.207 19.5694 51.1958 19.4291 50.699 19.509C50.6618 19.5155 50.1557 19.6557 50.0285 19.6947C50.2848 19.4078 50.5439 19.1245 50.8095 18.859C51.1664 18.4941 51.5467 18.1529 51.948 17.8375C51.9684 17.8681 52.4986 18.6677 52.8682 18.897C53.1895 19.0958 53.6529 19.2601 54.0262 19.1162C54.1151 19.0852 54.1964 19.0359 54.265 18.9715C54.3336 18.907 54.3878 18.8288 54.4241 18.742C54.4605 18.6552 54.4781 18.5617 54.476 18.4676C54.4738 18.3735 54.4519 18.281 54.4116 18.1959C54.1553 17.6917 53.144 17.5524 52.6472 17.6313C52.6082 17.6378 52.064 17.7901 51.9675 17.8245C51.9907 17.8059 52.013 17.7845 52.0362 17.7669C52.4479 17.4619 52.8858 17.1937 53.3446 16.9655C53.5963 16.8374 53.8442 16.7278 54.0875 16.6266C54.1711 16.7863 54.5602 17.5087 54.8703 17.752C55.1805 17.9953 55.6132 18.1987 55.9967 18.0966C56.0885 18.0756 56.1748 18.0356 56.25 17.9791C56.3253 17.9226 56.3878 17.8509 56.4335 17.7687C56.4793 17.6864 56.5072 17.5955 56.5154 17.5017C56.5237 17.408 56.5121 17.3136 56.4815 17.2246C56.2818 16.6953 55.2919 16.4455 54.7867 16.4696C54.7598 16.4696 54.4822 16.5151 54.2806 16.5504C54.3911 16.5068 54.5044 16.4576 54.6112 16.4195C55.0115 16.269 55.3876 16.1558 55.7256 16.0573C55.9113 16.0035 56.0896 15.9589 56.2512 15.918C56.4146 16.0313 57.0786 16.4808 57.4584 16.5513C57.8382 16.6219 58.3211 16.6071 58.6173 16.3387C58.9135 16.0703 58.9488 15.6144 58.6452 15.3423C58.2236 14.9634 57.2299 15.1983 56.7935 15.4519C56.7554 15.4741 56.2047 15.8855 56.2131 15.892L56.2233 15.8985C56.0654 15.9347 55.8974 15.9747 55.7154 16.022C55.3783 16.1149 54.9985 16.218 54.5927 16.361C54.1541 16.5097 53.7247 16.6839 53.3065 16.8829C52.8369 17.1035 52.3879 17.3655 51.9647 17.6657L51.9498 17.6778C52.0492 17.545 52.3148 17.1642 52.3315 17.1327C52.572 16.6878 52.7753 15.6877 52.3844 15.2754C52.3175 15.2093 52.2374 15.1581 52.1494 15.125C52.0613 15.0919 51.9673 15.0777 51.8734 15.0833C51.7795 15.0889 51.6879 15.1142 51.6044 15.1575C51.5209 15.2009 51.4475 15.2613 51.3889 15.3349C51.1298 15.6385 51.1308 16.1307 51.2125 16.4993C51.3053 16.9154 51.8625 17.6536 51.9024 17.7121C51.4795 18.0284 51.0781 18.3724 50.7008 18.742C50.4798 18.9565 50.2644 19.1784 50.0508 19.4041C50.1325 19.2871 50.2049 19.1812 50.2142 19.1654C50.4547 18.7206 50.6572 17.7195 50.2662 17.3082C50.1993 17.2421 50.1192 17.1908 50.0312 17.1577C49.9431 17.1246 49.8491 17.1104 49.7552 17.116C49.6614 17.1216 49.5697 17.1469 49.4862 17.1903C49.4028 17.2336 49.3293 17.294 49.2707 17.3676C49.0117 17.6713 49.0126 18.1634 49.0943 18.5321C49.176 18.9007 49.6366 19.5452 49.7601 19.7133L49.5075 19.9798C49.1203 20.4014 48.7349 20.823 48.3449 21.2251C48.2084 21.3672 48.0663 21.5037 47.927 21.6374C48.0004 21.5325 48.0608 21.4442 48.0682 21.4294C48.3087 20.9846 48.5121 19.9844 48.1211 19.5721C48.0542 19.5061 47.9741 19.4548 47.8861 19.4217C47.798 19.3886 47.704 19.3744 47.6101 19.38C47.5162 19.3856 47.4246 19.4109 47.3411 19.4542C47.2576 19.4976 47.1842 19.558 47.1256 19.6316C46.8665 19.9352 46.8675 20.4283 46.9492 20.797C47.0309 21.1656 47.4469 21.747 47.5927 21.9466C47.4451 22.0813 47.2984 22.2159 47.1488 22.3394C47.0448 22.4211 46.9511 22.5075 46.8424 22.5837L46.5267 22.8149C46.3215 22.9551 46.1097 23.1009 45.9054 23.2318C45.7643 23.3247 45.6268 23.4101 45.4913 23.4965C45.6296 23.3572 45.8952 23.0777 45.9147 23.0517C46.2193 22.6487 46.5722 21.6912 46.2472 21.2269C46.1911 21.1515 46.1197 21.0887 46.0378 21.0426C45.9558 20.9965 45.8651 20.9681 45.7715 20.9593C45.6779 20.9506 45.5835 20.9616 45.4944 20.9917C45.4053 21.0218 45.3236 21.0703 45.2545 21.1341C44.9517 21.395 44.883 21.8816 44.9025 22.2586C44.9304 22.6737 45.3455 23.4575 45.3975 23.5587C45.169 23.7008 44.9462 23.8373 44.7344 23.9626Z" fill="#BC9434"/>
<path d="M57.1222 24.6405C57.1222 24.6508 57.8038 24.5755 57.8465 24.5662C58.3387 24.4539 59.2255 23.9478 59.2756 23.3841C59.3118 22.9783 58.9664 22.67 58.5755 22.6746C58.1845 22.6793 57.8066 23.0043 57.5828 23.3089C57.3218 23.6655 57.1222 24.6396 57.1222 24.6405Z" fill="#BC9434"/>
<path d="M18.3605 7.36196L16.7797 8.59966L18.6981 11.0498L20.2789 9.81208L18.3605 7.36196Z" fill="#BC9434" stroke="#BC9434" stroke-width="0.376003" stroke-linejoin="round"/>
<path d="M18.234 6.06009L15.5462 8.16453L16.9076 9.90323L19.5953 7.79879L18.234 6.06009Z" fill="#BC9434" stroke="#BC9434" stroke-width="0.376003" stroke-linejoin="round"/>
<path d="M16.1265 7.79262L17.1247 9.06762" stroke="#BC9434" stroke-width="0.376003" stroke-linejoin="round"/>
<path d="M17.0365 7.08036L18.0347 8.35443" stroke="#BC9434" stroke-width="0.376003" stroke-linejoin="round"/>
<path d="M16.7886 7.76384L17.7868 9.03791" stroke="#BC9434" stroke-width="0.376003" stroke-linejoin="round"/>
<path d="M38.8688 9.81385L40.4496 11.0516L42.368 8.60143L40.7872 7.36372L38.8688 9.81385Z" fill="#BC9434" stroke="#BC9434" stroke-width="0.376003" stroke-linejoin="round"/>
<path d="M39.5539 7.79834L42.2417 9.90278L43.603 8.16407L40.9153 6.05963L39.5539 7.79834Z" fill="#BC9434" stroke="#BC9434" stroke-width="0.376003" stroke-linejoin="round"/>
<path d="M43.0239 7.79262L42.0256 9.06762" stroke="#BC9434" stroke-width="0.376003" stroke-linejoin="round"/>
<path d="M42.1138 7.08036L41.1156 8.35443" stroke="#BC9434" stroke-width="0.376003" stroke-linejoin="round"/>
<path d="M42.3618 7.76384L41.3635 9.03791" stroke="#BC9434" stroke-width="0.376003" stroke-linejoin="round"/>
<path d="M31.0818 3.05759H27.8261V6.31797H31.0818V3.05759Z" fill="#BC9434" stroke="#BC9434" stroke-width="0.376003" stroke-linejoin="round"/>
<path d="M31.8099 1.18735H27.0981V4.44773H31.8099V1.18735Z" fill="#BC9434" stroke="#BC9434" stroke-width="0.376003" stroke-linejoin="round"/>
<path d="M27.5215 1.1762V3.89334" stroke="#BC9434" stroke-width="0.376003" stroke-linejoin="round"/>
<path d="M27.9097 4.01499V2.55892" stroke="#BC9434" stroke-width="0.376003" stroke-linejoin="round"/>
<path d="M28.322 1.24956V3.31109" stroke="#BC9434" stroke-width="0.376003" stroke-linejoin="round"/>
<path d="M28.7343 2.24411V4.13664" stroke="#BC9434" stroke-width="0.376003" stroke-linejoin="round"/>
<path d="M29.3658 1.27372V3.40861" stroke="#BC9434" stroke-width="0.376003" stroke-linejoin="round"/>
<path d="M41.4966 34.8219C48.148 28.1705 48.148 17.3866 41.4966 10.7353C34.8453 4.08395 24.0614 4.08395 17.41 10.7353C10.7587 17.3866 10.7587 28.1705 17.41 34.8219C24.0614 41.4732 34.8453 41.4732 41.4966 34.8219Z" fill="#BC9434" stroke="#BC9434" stroke-width="0.376003" stroke-linejoin="round"/>
<path d="M40.0849 33.4101C45.9565 27.5385 45.9565 18.0187 40.0849 12.147C34.2133 6.2754 24.6934 6.27541 18.8218 12.147C12.9502 18.0187 12.9502 27.5385 18.8218 33.4101C24.6935 39.2818 34.2132 39.2818 40.0849 33.4101Z" fill="white" stroke="#BC9434" stroke-width="0.376003" stroke-linejoin="round"/>
<path d="M39.2516 32.5769C44.6631 27.1654 44.6631 18.3917 39.2516 12.9803C33.8402 7.56887 25.0665 7.56887 19.6551 12.9803C14.2436 18.3917 14.2436 27.1654 19.6551 32.5769C25.0665 37.9883 33.8402 37.9883 39.2516 32.5769Z" fill="white" stroke="#BC9434" stroke-width="0.376003" stroke-linejoin="round"/>
<path d="M29.454 8.92182V10.8004" stroke="#BC9434" stroke-width="0.376003" stroke-linejoin="round"/>
<path d="M29.454 34.743V36.6216" stroke="#BC9434" stroke-width="0.376003" stroke-linejoin="round"/>
<path d="M43.3034 22.7721H41.4248" stroke="#BC9434" stroke-width="0.376003" stroke-linejoin="round"/>
<path d="M17.4822 22.7721H15.6036" stroke="#BC9434" stroke-width="0.376003" stroke-linejoin="round"/>
<path d="M39.2472 12.979L37.9184 14.3069" stroke="#BC9434" stroke-width="0.376003" stroke-linejoin="round"/>
<path d="M20.9887 31.2365L19.6608 32.5654" stroke="#BC9434" stroke-width="0.376003" stroke-linejoin="round"/>
<path d="M19.6608 12.979L20.9887 14.3069" stroke="#BC9434" stroke-width="0.376003" stroke-linejoin="round"/>
<path d="M37.9184 31.2365L39.2472 32.5654" stroke="#BC9434" stroke-width="0.376003" stroke-linejoin="round"/>
<path d="M32.8722 21.4526L33.0886 22.2781L18.9271 25.6936L18.8621 25.4457L32.8722 21.4526Z" fill="#BC9434" stroke="#BC9434" stroke-width="0.376003" stroke-linejoin="round"/>
<path d="M29.9972 22.7787C29.9972 22.6712 29.9653 22.5662 29.9057 22.4769C29.846 22.3875 29.7611 22.3179 29.6619 22.2768C29.5626 22.2357 29.4534 22.2249 29.348 22.2459C29.2426 22.2668 29.1458 22.3186 29.0698 22.3945C28.9939 22.4705 28.9421 22.5673 28.9212 22.6727C28.9002 22.7781 28.911 22.8873 28.9521 22.9866C28.9932 23.0858 29.0628 23.1707 29.1522 23.2304C29.2415 23.2901 29.3465 23.3219 29.454 23.3219C29.5253 23.3219 29.5959 23.3079 29.6619 23.2806C29.7278 23.2533 29.7877 23.2133 29.8381 23.1628C29.8885 23.1124 29.9286 23.0525 29.9559 22.9866C29.9832 22.9207 29.9972 22.85 29.9972 22.7787Z" fill="white" stroke="#BC9434" stroke-width="0.376003" stroke-linejoin="round"/>
<path d="M24.2361 33.0752L23.3864 32.518C23.3864 32.518 22.8599 33.0278 22.8292 33.0752C22.7986 33.1225 21.3518 33.2953 21.0649 33.2953C20.7779 33.2953 20.5727 33.2275 20.5383 33.364C20.504 33.5005 20.946 33.8051 21.5914 33.975C21.8458 34.0419 22.2173 34.1756 22.5832 34.3065L22.5256 34.4505C22.5256 34.4505 23.4932 34.807 23.6464 34.8219C23.6984 34.8284 23.7486 34.7495 23.7922 34.6436C23.9436 34.5071 24.2361 33.0752 24.2361 33.0752Z" fill="#BC9434" stroke="#BC9434" stroke-width="0.376003" stroke-linejoin="round"/>
<path d="M38.6241 25.8078L38.8284 26.7996C38.8284 26.7996 39.5611 26.8088 39.6215 26.7996C39.6818 26.7903 40.8287 27.6845 41.0302 27.8879C41.2317 28.0913 41.331 28.2826 41.4518 28.2101C41.5725 28.1377 41.4731 27.6102 41.1351 27.0345C41.0014 26.8079 40.8314 26.4513 40.6652 26.1003L40.8073 26.039C40.8073 26.039 40.3718 25.1039 40.2752 24.9841C40.2418 24.9433 40.1508 24.9637 40.0458 25.0073C39.8378 25.0008 38.6241 25.8078 38.6241 25.8078Z" fill="#BC9434" stroke="#BC9434" stroke-width="0.376003" stroke-linejoin="round"/>
<path d="M28.7065 23.1547C28.7065 23.1547 28.4344 23.3247 28.4687 23.4268C28.5031 23.529 28.7232 23.698 28.7232 23.698C28.7232 23.698 25.1331 26.7931 25.0653 27.0308C24.9976 27.2685 22.8274 32.5143 22.8274 32.5143L24.4915 33.35L26.7127 28.0699L30.4894 25.6555C30.4894 25.6555 33.2195 29.539 33.4916 29.5056C33.7637 29.4721 39.3494 26.8701 39.3494 26.8701L38.8043 25.5924L34.085 27.2082L32.6113 23.9023C32.6113 23.9023 32.9679 23.2903 32.7478 22.6951C32.5277 22.0998 31.8814 21.1833 31.8814 21.1833L28.7065 23.1547Z" fill="#BC9434" stroke="#BC9434" stroke-width="0.376003" stroke-linejoin="round"/>
<path d="M30.4885 25.6509C30.4885 25.6509 32.2974 24.5681 32.4506 24.4149" stroke="#999999" stroke-width="0.376003" stroke-linejoin="round"/>
<path d="M29.5013 23.138C29.7101 22.9519 29.9323 22.7815 30.1662 22.6282C30.5228 22.4248 31.3381 22.4583 31.3381 22.4583" stroke="#999999" stroke-width="0.376003" stroke-linejoin="round"/>
<path d="M28.9265 23.6469C28.9265 23.6469 29.0473 23.5355 29.2181 23.3841" stroke="#999999" stroke-width="0.376003" stroke-linejoin="round"/>
<path d="M31.7282 22.2716C31.7282 22.2716 31.0494 22.1862 30.521 22.3227" stroke="#999999" stroke-width="0.376003" stroke-linejoin="round"/>
<path d="M30.9128 25.4809C30.9128 25.4809 32.3225 25.7363 32.7812 25.702" stroke="#999999" stroke-width="0.376003" stroke-linejoin="round"/>
<path d="M32.6271 26.5721C32.7367 26.6046 32.8453 26.6315 32.9512 26.6529" stroke="#999999" stroke-width="0.376003" stroke-linejoin="round"/>
<path d="M30.8961 25.7874C31.3528 26.0569 31.8319 26.2865 32.3281 26.4737" stroke="#999999" stroke-width="0.376003" stroke-linejoin="round"/>
<path d="M28.4335 22.8492L28.7055 23.1547L31.8814 21.1842L31.6771 20.9808L28.4335 22.8492Z" fill="#BC9434" stroke="#BC9434" stroke-width="0.376003" stroke-linejoin="round"/>
<path d="M33.0533 18.9156L33.3449 19.3084L34.0581 19.0614L33.9123 18.7113L33.0533 18.9156Z" fill="white" stroke="#BC9434" stroke-width="0.376003" stroke-linejoin="round"/>
<path d="M25.5491 16.0517C25.5491 16.0517 24.1367 16.0722 23.4133 16.0517C22.6899 16.0313 20.6683 15.6283 20.5067 15.931C20.3452 16.2338 20.6878 17.0612 21.6777 17.3843C22.6676 17.7075 24.8267 18.0102 24.8267 18.0102C24.8267 18.0102 25.7144 19.1245 26.2196 19.7867C26.7248 20.4488 27.6525 21.9875 27.7333 22.1286C27.814 22.2698 28.1771 23.138 28.6619 22.956C29.1466 22.774 31.7904 21.1396 31.7904 21.018C31.7904 20.8964 31.7904 20.7394 31.7105 20.6345C31.6307 20.5295 30.6807 19.3632 30.5191 19.0558C30.3575 18.7485 29.7762 17.2599 29.7762 17.2599L31.0475 16.9571C31.0475 16.9571 32.5416 18.6119 32.8239 18.8747C33.1062 19.1375 33.3486 19.0363 33.3486 19.0363C33.3486 19.0363 34.0154 18.9147 34.0349 18.7132C34.0544 18.5117 31.8145 15.0795 31.5926 14.9588C31.3707 14.838 29.8765 15.3423 29.271 15.4426C28.6656 15.5429 27.9385 15.5837 27.0907 15.7862C26.5832 15.9084 26.0682 15.9971 25.5491 16.0517Z" fill="white" stroke="#BC9434" stroke-width="0.376003" stroke-linejoin="round"/>
<path d="M29.766 17.2636L27.7472 17.8282" stroke="#BC9434" stroke-width="0.376003" stroke-linejoin="round"/>
<path d="M28.8569 17.5255L28.1511 18.091" stroke="#BC9434" stroke-width="0.376003" stroke-linejoin="round"/>
<path d="M23.105 17.2209L22.8014 17.0816" stroke="#BC9434" stroke-width="0.376003" stroke-linejoin="round"/>
<path d="M23.4068 17.0417L24.8202 18.0102L23.3251 17.323" stroke="#BC9434" stroke-width="0.376003" stroke-linejoin="round"/>
<path d="M28.2208 20.1581C28.9312 20.3057 30.1709 20.523 31.2165 20.4998" stroke="#BC9434" stroke-width="0.376003" stroke-linejoin="round"/>
<path d="M27.6385 20.0262C27.6385 20.0262 27.7602 20.0569 27.9673 20.1033" stroke="#BC9434" stroke-width="0.376003" stroke-linejoin="round"/>
<path d="M29.831 20.2064C29.831 20.2064 30.6723 20.381 31.2342 20.381" stroke="#BC9434" stroke-width="0.376003" stroke-linejoin="round"/>
<path d="M25.5231 17.1178L25.8287 18.1402L26.2261 17.0872L25.5231 17.1178Z" fill="#BC9434" stroke="#BC9434" stroke-width="0.376003" stroke-linejoin="round"/>
<path d="M25.6151 16.3471L25.212 16.7909L25.9067 17.3472L26.2957 16.6526L25.6151 16.3471Z" fill="white" stroke="#BC9434" stroke-width="0.376003" stroke-linejoin="round"/>
<path d="M25.212 16.7909L25.4071 17.6109L25.6847 17.1661L25.212 16.7909Z" fill="white" stroke="#BC9434" stroke-width="0.376003" stroke-linejoin="round"/>
<path d="M23.9204 13.2074C23.9204 13.2074 23.6418 13.8881 23.6566 14.0682C23.6715 14.2484 23.8099 14.3598 23.7959 14.5687C23.782 14.7777 23.3511 15.1659 23.4486 15.2634C23.5461 15.3609 23.9064 15.5132 23.9064 15.5132C23.9064 15.5132 24.2955 16.3192 24.4348 16.3489C24.5741 16.3786 25.3235 16.0016 25.3235 16.0016L25.9067 17.3481L27.06 15.6404L26.6709 14.8761C26.6709 14.8761 27.0043 14.0153 26.6849 13.3068C26.3654 12.5982 25.3514 12.5564 24.8648 12.64C24.3782 12.7236 24.0179 12.9297 23.9204 13.2074Z" fill="white" stroke="#BC9434" stroke-width="0.376003" stroke-miterlimit="10"/>
<path d="M24.8518 13.056C24.7388 13.0321 24.622 13.0334 24.5096 13.0598C24.3972 13.0863 24.2921 13.1374 24.2017 13.2093C23.8554 13.4591 23.5628 13.7367 23.4245 13.4878C23.2861 13.239 23.7161 12.8211 23.7161 12.8211C23.7161 12.8211 23.3688 12.7236 23.5081 12.3215C23.6474 11.9194 24.1581 11.8349 24.1581 11.9742C24.1581 12.1135 24.1163 12.224 24.5054 12.0299C24.8945 11.8358 25.1025 11.7792 25.1861 12.002C25.2696 12.2249 25.7692 12.0949 26.3385 12.4181C26.9077 12.7412 27.047 12.9465 26.9217 13.6689C26.7963 14.3914 26.7694 14.7378 26.6719 14.8761C26.5744 15.0145 26.2271 15.0563 26.0748 15.0015C25.9225 14.9467 26.0051 14.7925 26.0051 14.7925C26.0051 14.7925 26.4081 14.3895 26.2271 14.0701C26.046 13.7506 25.7832 13.8899 25.6996 14.0701C25.616 14.2502 25.6578 14.4035 25.5324 14.4035C25.4071 14.4035 25.2966 14.3106 25.2687 14.1119C25.2409 13.9131 25.1443 13.7404 25.0607 13.7089C24.9771 13.6773 24.7691 13.8621 24.7821 13.5426C24.787 13.3584 24.8556 13.1815 24.9762 13.0421L24.8518 13.056Z" fill="#BC9434" stroke="#BC9434" stroke-width="0.376003" stroke-miterlimit="10"/>
<path d="M23.9213 14.4295C23.9177 14.341 23.9467 14.2542 24.0029 14.1858C24.059 14.1173 24.1384 14.0718 24.2259 14.058" stroke="#BC9434" stroke-width="0.376003" stroke-miterlimit="10"/>
<path d="M24.2491 14.5669C24.276 14.6421 24.2677 14.7145 24.2314 14.7275C24.1952 14.7405 24.1451 14.6885 24.1182 14.6124C24.0912 14.5362 24.0996 14.4647 24.1358 14.4517C24.172 14.4387 24.2231 14.4907 24.2491 14.5669Z" fill="#BC9434"/>
<path d="M27.0322 15.1937L25.824 16.7352L26.046 17.5552L27.463 15.5828L27.0322 15.1937Z" fill="white" stroke="#BC9434" stroke-width="0.376003" stroke-linejoin="round"/>
<path d="M25.8277 18.1402C25.8487 18.2099 25.8882 18.2726 25.942 18.3217C25.9958 18.3707 26.0619 18.4043 26.1332 18.4188C26.3775 18.4643 26.8046 18.2814 27.0182 17.7316C27.2318 17.1819 27.6748 15.671 27.9338 15.3042C28.1929 14.9374 29.0482 14.9235 29.4911 14.9532C29.9341 14.9829 30.2387 14.5567 30.651 14.3579C30.8925 14.2406 31.1495 14.1583 31.4143 14.1137L31.9343 13.056L30.8506 13.0254C30.8506 13.0254 29.7818 13.5296 29.5069 13.85C29.232 14.1704 29.0342 14.1286 28.4539 14.2465C27.8735 14.3644 27.554 14.6133 27.3247 15.3153C27.0953 16.0174 26.7907 17.7883 26.4545 18.0325C26.3686 18.1037 26.2655 18.1511 26.1555 18.17C26.0455 18.1889 25.9325 18.1786 25.8277 18.1402Z" fill="#BC9434" stroke="#BC9434" stroke-width="0.376003" stroke-linejoin="round"/>
<path d="M22.0752 16.9896C22.2006 17.1206 22.2191 17.3063 22.1161 17.4066C22.013 17.5069 21.8263 17.4818 21.701 17.3518C21.5756 17.2218 21.557 17.0351 21.6601 16.9349C21.7632 16.8346 21.9489 16.8634 22.0752 16.9896Z" fill="white" stroke="#BC9434" stroke-width="0.376003" stroke-linejoin="round"/>
<path d="M21.9758 17.2432L21.7743 17.0296C21.7743 17.0296 21.3601 15.9505 20.8076 15.6617C20.2551 15.3729 19.5902 15.8122 19.4518 16.2263C19.3135 16.6405 19.8038 17.3314 20.3182 17.545C20.7314 17.6997 21.1554 17.8239 21.5867 17.9164C21.5867 17.9164 21.8254 17.3565 21.9758 17.2432Z" fill="white" stroke="#BC9434" stroke-width="0.376003" stroke-linejoin="round"/>
<path d="M21.2599 17.8208L21.2812 17.8486C21.4623 17.8941 21.5867 17.9211 21.5867 17.9211C21.5867 17.9211 21.8254 17.3565 21.9758 17.2432L21.7743 17.0296C21.7743 17.0296 21.1967 17.1299 21.2599 17.8208Z" fill="#BC9434" stroke="#BC9434" stroke-width="0.376003" stroke-linejoin="round"/>
<path d="M23.2434 18.9128C23.3165 19.0179 23.4009 19.1148 23.495 19.2016C23.5953 19.2778 23.6325 19.3651 23.5071 19.353C23.3554 19.3494 23.2112 19.2859 23.1059 19.1765C22.9797 19.0391 22.8924 18.9258 22.8924 18.9258L23.2434 18.9128Z" fill="white" stroke="#BC9434" stroke-width="0.376003" stroke-linejoin="round"/>
<path d="M23.3065 18.5349C23.3065 18.5349 23.4821 18.8237 23.4198 18.8989C23.3576 18.9741 22.7791 18.9992 22.6909 18.9741C22.6026 18.949 22.6658 18.8358 22.6658 18.8358L23.3065 18.5349Z" fill="white" stroke="#BC9434" stroke-width="0.376003" stroke-linejoin="round"/>
<path d="M23.2935 18.1978C23.2935 18.1978 23.4319 18.4114 23.4068 18.4987C23.3818 18.586 22.7921 18.8506 22.6639 18.8376C22.5358 18.8246 22.5516 18.7252 22.5516 18.7252L23.2935 18.1978Z" fill="white" stroke="#BC9434" stroke-width="0.376003" stroke-linejoin="round"/>
<path d="M23.0558 17.9461C23.0558 17.9461 23.2815 17.9211 23.3066 18.0845C23.3316 18.2479 23.1933 18.2981 23.106 18.3733C23.0187 18.4485 22.6417 18.7253 22.5534 18.7253C22.4652 18.7253 22.3018 18.4736 22.3018 18.4736L23.0558 17.9461Z" fill="white" stroke="#BC9434" stroke-width="0.376003" stroke-linejoin="round"/>
<path d="M21.9758 17.2432C21.9758 17.2432 22.5906 17.4698 22.8794 17.545C23.1682 17.6202 23.1812 17.8589 23.0558 17.9461C22.9305 18.0334 22.5404 18.5117 22.4271 18.5368C22.3139 18.5618 22.1486 18.4365 22.1486 18.4365C22.1486 18.4365 21.7966 18.26 21.7465 18.1226C21.7159 18.0394 21.6588 17.9686 21.584 17.9211C21.584 17.9211 21.5487 17.4066 21.9758 17.2432Z" fill="white" stroke="#BC9434" stroke-width="0.376003" stroke-linejoin="round"/>
<path d="M22.1513 18.4364C22.1513 18.4364 22.0511 18.1978 22.1393 18.1346C22.2275 18.0715 22.3649 18.2099 22.3649 18.2099C22.385 18.1371 22.419 18.069 22.4652 18.0093" stroke="#BC9434" stroke-width="0.376003" stroke-linejoin="round"/>
<path d="M33.3495 19.3084C33.3828 19.4885 33.4036 19.6706 33.4118 19.8535C33.4015 19.9807 33.1796 20.5101 33.1685 20.5416C33.1573 20.5732 33.2427 20.7004 33.2743 20.7422C33.3059 20.784 33.4545 20.7636 33.5705 20.8583C33.6866 20.953 33.8241 21.187 33.994 21.1369C34.1639 21.0867 34.2726 20.8583 34.2726 20.8583C34.2726 20.8583 34.6635 20.6261 34.6737 20.5101C34.6791 20.367 34.6612 20.224 34.6208 20.0866C34.5892 19.9937 34.0636 19.0651 34.0636 19.0651L33.3495 19.3084Z" fill="white" stroke="#BC9434" stroke-width="0.376003" stroke-linejoin="round"/>
<path d="M33.46 20.446C33.46 20.446 33.6606 20.4775 33.7461 20.7849" stroke="#BC9434" stroke-width="0.376003" stroke-linejoin="round"/>
<path d="M33.5659 20.6048L33.1109 20.8379L33.5343 21.6309" stroke="#BC9434" stroke-width="1.12801" stroke-linecap="round" stroke-linejoin="round"/>
<path d="M34.6766 20.224L34.8028 20.1711L35.2263 21.0171" stroke="#BC9434" stroke-width="1.12801" stroke-linejoin="round"/>
<path d="M36.7933 20.1681L32.242 22.1992C32.0645 22.2785 31.9848 22.4866 32.064 22.6641L33.2853 25.4006C33.3645 25.5781 33.5726 25.6578 33.7501 25.5786L38.3014 23.5474C38.4789 23.4682 38.5585 23.2601 38.4793 23.0826L37.2581 20.3461C37.1789 20.1686 36.9708 20.0889 36.7933 20.1681Z" fill="#BC9434" stroke="#BC9434" stroke-width="0.376003" stroke-linejoin="round"/>
</svg>
