<svg width="16" height="16" viewBox="0 0 16 16" fill="none" xmlns="http://www.w3.org/2000/svg">
<path d="M12.6666 7.33335H8.66663V3.33335C8.66663 3.15654 8.59639 2.98697 8.47136 2.86195C8.34634 2.73693 8.17677 2.66669 7.99996 2.66669C7.82315 2.66669 7.65358 2.73693 7.52855 2.86195C7.40353 2.98697 7.33329 3.15654 7.33329 3.33335V7.33335H3.33329C3.15648 7.33335 2.98691 7.40359 2.86189 7.52862C2.73686 7.65364 2.66663 7.82321 2.66663 8.00002C2.66663 8.17683 2.73686 8.3464 2.86189 8.47142C2.98691 8.59645 3.15648 8.66669 3.33329 8.66669H7.33329V12.6667C7.33329 12.8435 7.40353 13.0131 7.52855 13.1381C7.65358 13.2631 7.82315 13.3334 7.99996 13.3334C8.17677 13.3334 8.34634 13.2631 8.47136 13.1381C8.59639 13.0131 8.66663 12.8435 8.66663 12.6667V8.66669H12.6666C12.8434 8.66669 13.013 8.59645 13.138 8.47142C13.2631 8.3464 13.3333 8.17683 13.3333 8.00002C13.3333 7.82321 13.2631 7.65364 13.138 7.52862C13.013 7.40359 12.8434 7.33335 12.6666 7.33335Z" fill="white"/>
</svg>
