<svg width="25" height="25" viewBox="0 0 25 25" fill="none" xmlns="http://www.w3.org/2000/svg">
<path d="M15.625 11.4584H13.5417V7.29171C13.5417 7.01544 13.432 6.75049 13.2366 6.55514C13.0413 6.35979 12.7763 6.25004 12.5 6.25004C12.2238 6.25004 11.9588 6.35979 11.7635 6.55514C11.5681 6.75049 11.4584 7.01544 11.4584 7.29171V12.5C11.4584 12.7763 11.5681 13.0413 11.7635 13.2366C11.9588 13.432 12.2238 13.5417 12.5 13.5417H15.625C15.9013 13.5417 16.1663 13.432 16.3616 13.2366C16.557 13.0413 16.6667 12.7763 16.6667 12.5C16.6667 12.2238 16.557 11.9588 16.3616 11.7635C16.1663 11.5681 15.9013 11.4584 15.625 11.4584ZM12.5 2.08337C10.4398 2.08337 8.42587 2.6943 6.71286 3.8389C4.99984 4.9835 3.66471 6.61036 2.8763 8.51375C2.08789 10.4172 1.8816 12.5116 2.28353 14.5322C2.68546 16.5529 3.67755 18.4089 5.13435 19.8657C6.59115 21.3225 8.44722 22.3146 10.4679 22.7166C12.4885 23.1185 14.5829 22.9122 16.4863 22.1238C18.3897 21.3354 20.0166 20.0002 21.1612 18.2872C22.3058 16.5742 22.9167 14.5603 22.9167 12.5C22.9167 11.1321 22.6473 9.77756 22.1238 8.51375C21.6003 7.24995 20.833 6.10162 19.8657 5.13435C18.8985 4.16707 17.7501 3.39978 16.4863 2.8763C15.2225 2.35281 13.868 2.08337 12.5 2.08337ZM12.5 20.8334C10.8519 20.8334 9.2407 20.3446 7.87029 19.429C6.49988 18.5133 5.43178 17.2118 4.80105 15.6891C4.17032 14.1664 4.00529 12.4908 4.32684 10.8743C4.64838 9.25778 5.44205 7.77292 6.60749 6.60748C7.77293 5.44205 9.25779 4.64837 10.8743 4.32683C12.4908 4.00529 14.1664 4.17031 15.6891 4.80104C17.2118 5.43177 18.5133 6.49988 19.429 7.87029C20.3446 9.2407 20.8334 10.8519 20.8334 12.5C20.8334 14.7102 19.9554 16.8298 18.3926 18.3926C16.8298 19.9554 14.7102 20.8334 12.5 20.8334Z" fill="black" fill-opacity="0.87"/>
</svg>
