<svg width="24" height="24" viewBox="0 0 24 24" fill="none" xmlns="http://www.w3.org/2000/svg">
<path d="M18.0201 11.8V8.91003C18.0201 5.61003 15.3201 2.91003 12.0201 2.91003C8.71009 2.91003 6.02009 5.60003 6.02009 8.91003V11.8C6.02009 12.41 5.76009 13.34 5.45009 13.86L4.30009 15.77C3.59009 16.95 4.08009 18.26 5.38009 18.7C9.69009 20.14 14.3401 20.14 18.6501 18.7C19.8601 18.3 20.3901 16.87 19.7301 15.77" stroke="#FED36A" stroke-width="1.5" stroke-miterlimit="10" stroke-linecap="round"/>
<path d="M13.8699 3.20104C12.6606 2.85663 11.3792 2.85663 10.1699 3.20104C10.4599 2.46104 11.1799 1.94104 12.0199 1.94104C12.8599 1.94104 13.5799 2.46104 13.8699 3.20104V3.20104Z" stroke="#FED36A" stroke-width="1.5" stroke-miterlimit="10" stroke-linecap="round" stroke-linejoin="round"/>
<path d="M15.02 19.059C15.02 20.709 13.67 22.059 12.02 22.059C11.2 22.059 10.44 21.719 9.90002 21.179C9.33818 20.6163 9.02181 19.8541 9.02002 19.059" stroke="#FED36A" stroke-width="1.5" stroke-miterlimit="10"/>
</svg>
